<?xml version="1.0" ?><!-- Uploaded to: SVG Repo, www.svgrepo.com, Generator: SVG Repo Mixer Tools -->
<svg fill="#000000" width="800px" height="800px" viewBox="0 0 16 16" data-name="Layer 1" id="Layer_1" xmlns="http://www.w3.org/2000/svg"><title/><ellipse cx="6" cy="5.5" rx="1" ry="1.5"/><ellipse cx="10" cy="5.5" rx="1" ry="1.5"/><path d="M12.071,12H10.929a2.929,2.929,0,0,0-5.858,0H3.929a4.071,4.071,0,0,1,8.142,0Z"/><path d="M8,1A7,7,0,1,1,1,8,7.008,7.008,0,0,1,8,1M8,0a8,8,0,1,0,8,8A8,8,0,0,0,8,0Z"/><path d="M12.625,9.367a.967.967,0,0,1-.247-.032c-1.025-.269-1.627-2.248-1.738-2.642a.4.4,0,0,1,.495-.495c.394.111,2.374.713,2.642,1.738a1.058,1.058,0,0,1-.345,1.054A1.129,1.129,0,0,1,12.625,9.367Zm-.948-2.132c.261.636.613,1.247.9,1.323.034.011.116.033.283-.136s.145-.251.136-.283C12.925,7.848,12.313,7.5,11.677,7.235Z"/><path d="M3.5,5V4.012A1.523,1.523,0,0,0,5.03,2.5h1A2.518,2.518,0,0,1,3.5,5Z"/><path d="M12.5,5V4.012A1.523,1.523,0,0,1,10.97,2.5h-1A2.518,2.518,0,0,0,12.5,5Z"/></svg>