<?xml version="1.0" encoding="utf-8"?>

<!DOCTYPE svg PUBLIC "-//W3C//DTD SVG 1.1//EN" "http://www.w3.org/Graphics/SVG/1.1/DTD/svg11.dtd">
<!-- Uploaded to: SVG Repo, www.svgrepo.com, Generator: SVG Repo Mixer Tools -->
<svg height="800px" width="800px" version="1.1" id="_x32_" xmlns="http://www.w3.org/2000/svg" xmlns:xlink="http://www.w3.org/1999/xlink" 
	 viewBox="0 0 512 512"  xml:space="preserve">
<style type="text/css">
	.st0{fill:#000000;}
</style>
<g>
	<path class="st0" d="M34.209,152.142v208.084c0,16.773,8.802,32.311,23.186,40.947l174.048,104.392
		c5.832,3.496,12.207,5.628,18.717,6.434V260.777L38.007,133.524C35.543,139.325,34.209,145.64,34.209,152.142z M197.716,270.634
		c12.056,6.57,21.829,21.671,21.829,33.727c0,12.056-9.773,16.502-21.829,9.932c-12.056-6.571-21.822-21.671-21.822-33.728
		S185.659,264.062,197.716,270.634z M136.786,298.356c12.048,6.57,21.822,21.671,21.822,33.728c0,12.048-9.773,16.501-21.822,9.931
		c-12.064-6.571-21.837-21.671-21.837-33.728S124.722,291.785,136.786,298.356z M75.841,326.077
		c12.056,6.571,21.83,21.671,21.83,33.728c0,12.056-9.773,16.502-21.83,9.931c-12.048-6.57-21.822-21.671-21.822-33.727
		C54.019,323.952,63.793,319.507,75.841,326.077z"/>
	<path class="st0" d="M473.993,133.524L265.864,258.366c-2.494,1.492-4.024,4.19-4.024,7.099V512
		c6.511-0.806,12.893-2.938,18.718-6.434l174.047-104.392c14.385-8.636,23.186-24.174,23.186-40.947V152.142
		C477.791,145.64,476.457,139.325,473.993,133.524z M309.545,436.158c-12.056,6.571-21.83,2.125-21.83-9.931
		c0-12.049,9.773-27.149,21.83-33.72c12.056-6.571,21.829-2.125,21.829,9.924C331.374,414.487,321.601,429.588,309.545,436.158z
		 M309.545,314.292c-12.056,6.571-21.83,2.125-21.83-9.932c0-12.056,9.773-27.157,21.83-33.727
		c12.056-6.571,21.829-2.125,21.829,9.931S321.601,307.721,309.545,314.292z M431.412,369.736
		c-12.056,6.571-21.822,2.125-21.822-9.931c0-12.056,9.765-27.156,21.822-33.728c12.056-6.57,21.837-2.125,21.837,9.932
		C453.249,348.064,443.468,363.166,431.412,369.736z M431.412,247.87c-12.056,6.571-21.822,2.117-21.822-9.931
		c0-12.056,9.765-27.157,21.822-33.728s21.837-2.125,21.837,9.931C453.249,226.191,443.468,241.292,431.412,247.87z"/>
	<path class="st0" d="M454.605,111.204L280.557,6.804C272.992,2.268,264.507,0,256.001,0c-8.508,0-16.992,2.268-24.557,6.796
		L57.395,111.204c-5.35,3.202-9.916,7.37-13.556,12.192l207.903,124.707c2.623,1.575,5.893,1.575,8.515,0l207.904-124.707
		C464.521,118.574,459.955,114.406,454.605,111.204z M286.352,140.049c-17.542,12.192-45.536,11.868-62.535-0.716
		c-16.992-12.576-16.548-32.665,0.995-44.857c17.542-12.184,45.528-11.876,62.519,0.716
		C304.331,107.768,303.886,127.857,286.352,140.049z"/>
</g>
</svg>