<?xml version="1.0" encoding="utf-8"?><!-- Uploaded to: SVG Repo, www.svgrepo.com, Generator: SVG Repo Mixer Tools -->
<svg width="800px" height="800px" viewBox="0 -0.5 25 25" fill="none" xmlns="http://www.w3.org/2000/svg">
<path d="M6.96408 11.1656C7.1353 11.5428 7.57986 11.7098 7.95703 11.5385C8.3342 11.3673 8.50115 10.9228 8.32992 10.5456L6.96408 11.1656ZM5.662 9.58562L5.65209 10.3356C5.65697 10.3356 5.66185 10.3356 5.66672 10.3356L5.662 9.58562ZM3.5 11.6906L2.75 11.6805V11.6906H3.5ZM3.5 15.9026H2.74991L2.75009 15.9145L3.5 15.9026ZM5.662 18.0026L5.66791 17.2526C5.66263 17.2526 5.65735 17.2526 5.65206 17.2527L5.662 18.0026ZM8.42934 16.7892C8.56387 16.3975 8.35536 15.9708 7.9636 15.8363C7.57185 15.7017 7.1452 15.9103 7.01066 16.302L8.42934 16.7892ZM8.33221 10.5507C8.1638 10.1723 7.7205 10.002 7.34207 10.1704C6.96363 10.3388 6.79338 10.7821 6.96179 11.1605L8.33221 10.5507ZM7.824 11.6906L7.074 11.6899V11.6906H7.824ZM7.824 15.9026H7.07398L7.07402 15.9078L7.824 15.9026ZM7.01059 16.3182C6.88279 16.7122 7.09861 17.1352 7.49261 17.263C7.88662 17.3908 8.30962 17.175 8.43741 16.781L7.01059 16.3182ZM6.97556 10.5214C6.791 10.8923 6.942 11.3425 7.31283 11.5271C7.68366 11.7116 8.13388 11.5606 8.31844 11.1898L6.97556 10.5214ZM8.355 9.98662L7.91219 9.38129C7.90539 9.38626 7.89867 9.39136 7.89204 9.39656L8.355 9.98662ZM8.733 9.45062L9.45185 9.66452C9.45451 9.65558 9.457 9.64659 9.45933 9.63756L8.733 9.45062ZM9.814 5.25062L9.09387 5.04105C9.09169 5.04856 9.08962 5.0561 9.08767 5.06367L9.814 5.25062ZM11.933 4.06062L11.7371 4.78459C11.7429 4.78614 11.7486 4.78762 11.7544 4.78903L11.933 4.06062ZM12.977 4.83447L12.332 5.21721V5.21721L12.977 4.83447ZM13.156 6.12162L13.8791 6.32085L13.8809 6.31384L13.156 6.12162ZM12.538 8.36462L11.8149 8.16537L11.8119 8.17678L12.538 8.36462ZM12.6929 9.10118L12.1039 9.56555L12.1039 9.56555L12.6929 9.10118ZM13.373 9.42362V8.6735L13.3597 8.67373L13.373 9.42362ZM16.905 9.42362V10.1737L16.9153 10.1735L16.905 9.42362ZM18.7259 10.149L19.249 9.61153V9.61153L18.7259 10.149ZM19.5 11.9496H20.2501L20.2499 11.9397L19.5 11.9496ZM19.5 15.3166L20.25 15.3268V15.3166H19.5ZM18.7255 17.1166L18.2025 16.5791V16.5791L18.7255 17.1166ZM16.905 17.8416L16.9153 17.0916H16.905V17.8416ZM9.986 17.8416V17.0916L9.98221 17.0916L9.986 17.8416ZM8.36836 16.1686C8.16014 15.8105 7.70107 15.689 7.34299 15.8973C6.98492 16.1055 6.86343 16.5645 7.07164 16.9226L8.36836 16.1686ZM8.32992 10.5456C7.85444 9.49822 6.8075 8.82839 5.65728 8.83563L5.66672 10.3356C6.22507 10.3321 6.73327 10.6572 6.96408 11.1656L8.32992 10.5456ZM5.67191 8.83568C4.07959 8.81464 2.77157 10.0882 2.75007 11.6805L4.24993 11.7007C4.26025 10.9366 4.88795 10.3255 5.65209 10.3356L5.67191 8.83568ZM2.75 11.6906V15.9026H4.25V11.6906H2.75ZM2.75009 15.9145C2.77529 17.5042 4.08221 18.7736 5.67194 18.7526L5.65206 17.2527C4.88917 17.2628 4.26199 16.6536 4.24991 15.8907L2.75009 15.9145ZM5.65609 18.7526C6.90648 18.7624 8.02319 17.9719 8.42934 16.7892L7.01066 16.302C6.81401 16.8746 6.27333 17.2574 5.66791 17.2526L5.65609 18.7526ZM6.96179 11.1605C7.03594 11.3272 7.07417 11.5075 7.074 11.6899L8.574 11.6913C8.57437 11.2983 8.49198 10.9097 8.33221 10.5507L6.96179 11.1605ZM7.074 11.6906V15.9026H8.574V11.6906H7.074ZM7.07402 15.9078C7.07498 16.0471 7.05357 16.1857 7.01059 16.3182L8.43741 16.781C8.52995 16.4957 8.57606 16.1974 8.57398 15.8974L7.07402 15.9078ZM8.31844 11.1898C8.43735 10.9509 8.60799 10.7414 8.81796 10.5767L7.89204 9.39656C7.50681 9.69881 7.19373 10.0831 6.97556 10.5214L8.31844 11.1898ZM8.79781 10.5919C9.11133 10.3626 9.34106 10.0368 9.45185 9.66452L8.01415 9.23672C7.99688 9.29476 7.96107 9.34554 7.91219 9.38129L8.79781 10.5919ZM9.45933 9.63756L10.5403 5.43756L9.08767 5.06367L8.00667 9.26367L9.45933 9.63756ZM10.5341 5.46018C10.6841 4.94484 11.219 4.64442 11.7371 4.78459L12.1289 3.33664C10.8218 2.98302 9.47222 3.74093 9.09387 5.04105L10.5341 5.46018ZM11.7544 4.78903C11.9966 4.84843 12.2047 5.00273 12.332 5.21721L13.622 4.45173C13.2892 3.89095 12.745 3.48752 12.1116 3.3322L11.7544 4.78903ZM12.332 5.21721C12.4593 5.43169 12.495 5.68833 12.4311 5.92939L13.8809 6.31384C14.0481 5.68354 13.9548 5.01251 13.622 4.45173L12.332 5.21721ZM12.4329 5.9224L11.8149 8.1654L13.2611 8.56384L13.8791 6.32084L12.4329 5.9224ZM11.8119 8.17678C11.6869 8.6599 11.795 9.17368 12.1039 9.56555L13.2818 8.63681C13.2631 8.61301 13.2565 8.5818 13.2641 8.55246L11.8119 8.17678ZM12.1039 9.56555C12.4129 9.95742 12.8873 10.1823 13.3863 10.1735L13.3597 8.67373C13.3294 8.67427 13.3006 8.66061 13.2818 8.63681L12.1039 9.56555ZM13.373 10.1736H16.905V8.67362H13.373V10.1736ZM16.9153 10.1735C17.3955 10.1669 17.8586 10.3514 18.2027 10.6864L19.249 9.61153C18.6197 8.99898 17.7728 8.6616 16.8947 8.67369L16.9153 10.1735ZM18.2027 10.6864C18.5468 11.0213 18.7437 11.4793 18.7501 11.9595L20.2499 11.9397C20.2384 11.0616 19.8783 10.2241 19.249 9.61153L18.2027 10.6864ZM18.75 11.9496V15.3166H20.25V11.9496H18.75ZM18.7501 15.3064C18.7436 15.7865 18.5466 16.2443 18.2025 16.5791L19.2485 17.6542C19.8778 17.0419 20.238 16.2047 20.2499 15.3268L18.7501 15.3064ZM18.2025 16.5791C17.8584 16.9139 17.3954 17.0983 16.9153 17.0917L16.8947 18.5915C17.7726 18.6036 18.6193 18.2664 19.2485 17.6542L18.2025 16.5791ZM16.905 17.0916H9.986V18.5916H16.905V17.0916ZM9.98221 17.0916C9.31783 17.095 8.70233 16.743 8.36836 16.1686L7.07164 16.9226C7.67552 17.9612 8.78847 18.5977 9.98979 18.5916L9.98221 17.0916Z" fill="#000000"/>
</svg>